# xmcd
#
# Track frame offsets:
#	150
#	14634
#	29661
#	40777
#	55327
#	73544
#	85363
#	100102
#	111169
#	122989
#	139562
#	151562
#	169475
#	181546
#
# Disc length: 2699 seconds
#
# Revision: 0
# Processed by: cddbd v1.5.2PL0 Copyright (c) Steve Scherf et al.
# Submitted via: MusicManager 7.3.0.0 
#
DISCID=b70a890e
DTITLE=DEREK RYAN - MADE OF GOLD
DYEAR=2012
DGENRE=country
TTITLE0=KISS ME MARY
TTITLE1=JUST A LITTLE LOVE
TTITLE2=BLUE
TTITLE3=SPARKLE
TTITLE4=HOME FROM THE SEA
TTITLE5=IT'S A LITTLE TOO LATE
TTITLE6=MADE OF GOLD
TTITLE7=EARLY IN THE MORNING
TTITLE8=I'LL SETTLE FOR OLD IRELAND
TTITLE9=SILVER WINGS
TTITLE10=NOTHING HURTS LIKE A HEARTACHE
TTITLE11=YOU WALTZED YOURSELF
TTITLE12=THE OLD ACCOUNT
TTITLE13=IRISH HEART
EXTD=
EXTT0=
EXTT1=
EXTT2=
EXTT3=
EXTT4=
EXTT5=
EXTT6=
EXTT7=
EXTT8=
EXTT9=
EXTT10=
EXTT11=
EXTT12=
EXTT13=
PLAYORDER=
